<svg width="290" height="50" viewBox="0 0 290 50" fill="none" xmlns="http://www.w3.org/2000/svg">
<path d="M0.492188 31.7863C0.492188 27.5807 3.52957 25.0106 8.20247 25.0106C10.5389 25.0106 12.6417 25.7115 14.2772 26.6461V24.3096C14.2772 21.0386 11.9408 18.4685 8.66976 18.4685C6.56695 18.4685 4.46415 19.4031 2.59499 21.0386C2.1277 21.5059 1.89406 21.2723 1.42677 21.0386L1.19312 20.805C0.725832 20.3377 0.959476 19.8704 1.42677 19.6367C3.76321 17.5339 6.09966 16.833 8.66976 16.833C13.5763 16.833 16.1464 19.8704 16.1464 25.0106V37.1601C16.1464 37.861 15.9127 38.0947 15.4455 38.0947H14.9782C14.5109 38.0947 14.2772 37.6274 14.2772 37.1601V34.8237C12.6417 37.1601 10.3053 38.3283 7.50153 38.3283C3.29593 38.562 0.492188 35.9919 0.492188 31.7863ZM7.73518 36.6928C11.0062 36.6928 14.2772 34.3564 14.2772 30.6181V28.9825C12.8754 28.2816 10.5389 26.8797 8.20247 26.8797C4.69779 26.8797 2.59499 28.9825 2.59499 31.7863C2.59499 34.59 4.69779 36.6928 7.73518 36.6928Z" fill="#0C1A3D"/>
<path d="M21.5212 40.654C21.2876 40.1868 21.054 39.7195 21.7549 39.2522C21.9885 39.0185 22.4558 38.7849 22.9231 39.4858C24.5586 41.8223 26.6614 43.2241 29.9325 43.2241C33.9044 43.2241 36.7082 40.654 36.7082 35.9811V32.2428C35.5399 34.5793 32.7362 35.5139 29.6988 35.5139C24.5586 35.5139 20.8203 32.0092 20.8203 26.1681C20.8203 20.0933 24.5586 16.8223 29.6988 16.8223C32.7362 16.8223 35.5399 18.2241 36.7082 20.7942V18.2241C36.7082 17.7568 36.9418 17.2896 37.4091 17.2896H37.8764C38.3437 17.2896 38.5773 17.5232 38.5773 18.2241V35.9811C38.5773 42.2896 34.6054 45.0933 29.6988 45.0933C26.4278 45.0933 23.6241 43.4578 21.5212 40.654ZM29.9325 33.6447C34.1381 33.6447 36.9418 30.841 36.9418 26.1681C36.9418 21.0279 34.1381 18.6914 29.9325 18.6914C25.7269 18.6914 22.9231 21.0279 22.9231 26.1681C22.9231 30.841 25.7269 33.6447 29.9325 33.6447Z" fill="#0C1A3D"/>
<path d="M43.4805 27.8124C43.4805 21.0367 47.4524 16.8311 52.8263 16.8311C55.63 16.8311 58.2001 18.2329 59.602 20.1021C61.2375 21.9712 61.7048 24.5413 61.7048 27.1114C61.7048 27.8124 61.2375 28.2797 60.7702 28.2797H45.5833C45.8169 33.4198 49.3216 36.4572 53.0599 36.4572C55.1627 36.4572 57.4992 35.289 59.602 33.1862C60.0693 32.7189 60.5365 32.9526 60.7702 33.1862L61.0038 33.4198C61.4711 33.8871 61.2375 34.3544 61.0038 34.8217C58.901 37.3918 55.8636 38.3264 53.2935 38.3264C48.1534 38.56 43.4805 34.5881 43.4805 27.8124ZM59.602 26.4105C59.602 24.3077 59.1347 22.9058 58.2001 21.7376C57.0319 19.8684 54.9291 18.7002 52.5926 18.7002C48.6207 18.7002 45.8169 21.2703 45.3496 26.6441H59.602V26.4105ZM48.387 12.6255L52.5926 9.82172C53.0599 9.58807 53.2936 9.58807 53.7608 9.82172L57.9664 12.6255C58.4337 12.8591 58.6674 13.3264 58.4337 13.7937L58.2001 14.0273C57.9664 14.261 57.4992 14.4946 57.0319 14.0273L53.2935 11.6909L49.3216 14.0273C48.8543 14.261 48.387 14.261 48.1534 14.0273L47.9197 13.7937C47.6861 13.3264 47.9197 13.0927 48.387 12.6255Z" fill="#0C1A3D"/>
<path d="M66.3828 37.1494V17.9905C66.3828 17.5232 66.6165 17.2896 67.0837 17.2896H67.551C68.0183 17.2896 68.252 17.5232 68.252 17.9905V20.0933C69.6538 17.9905 71.7566 16.8223 74.794 16.8223C79.4669 16.8223 82.2707 19.8597 82.2707 24.2989V37.1494C82.2707 37.6167 82.037 38.084 81.5697 38.084H81.1024C80.6351 38.084 80.4015 37.8503 80.4015 37.1494V24.5325C80.4015 21.0279 78.0651 18.6914 74.5604 18.6914C71.0557 18.6914 68.4856 21.2615 68.4856 24.7662V37.383C68.4856 37.8503 68.252 38.3176 67.7847 38.3176H67.3174C66.6165 38.084 66.3828 37.6167 66.3828 37.1494Z" fill="#0C1A3D"/>
<path d="M86.9375 27.3363C86.9375 20.5606 91.1431 16.8223 96.7506 16.8223C99.3207 16.8223 101.891 17.7568 104.227 20.3269C104.461 20.5606 104.695 21.2615 104.227 21.4952L103.994 21.7288C103.526 21.9625 103.293 22.1961 102.825 21.7288C100.723 19.3924 98.8534 18.6914 96.7506 18.6914C92.3113 18.6914 89.0403 21.7288 89.0403 27.5699C89.0403 33.6447 92.0777 36.6821 96.7506 36.6821C98.6197 36.6821 100.723 35.9811 102.825 33.6447C103.293 33.1774 103.76 33.1774 103.994 33.6447L104.227 33.8783C104.695 34.3456 104.461 34.8129 104.227 35.0466C102.124 37.6167 99.3207 38.5512 96.7506 38.5512C90.9095 38.5512 86.9375 34.5793 86.9375 27.3363Z" fill="#0C1A3D"/>
<path d="M109.604 9.8125C110.539 9.8125 111.24 10.5134 111.24 11.448C111.24 12.3826 110.539 13.0835 109.604 13.0835C108.67 13.0835 107.969 12.3826 107.969 11.448C107.969 10.5134 108.903 9.8125 109.604 9.8125ZM108.67 37.1489V17.9901C108.67 17.5228 108.903 17.2891 109.371 17.2891H109.838C110.305 17.2891 110.539 17.5228 110.539 17.9901V37.1489C110.539 37.6162 110.305 38.0835 109.838 38.0835H109.371C108.903 38.0835 108.67 37.6162 108.67 37.1489Z" fill="#0C1A3D"/>
<path d="M115.449 31.7863C115.449 27.5807 118.487 25.0106 123.159 25.0106C125.496 25.0106 127.599 25.7115 129.234 26.6461V24.3096C129.234 21.0386 126.898 18.4685 123.627 18.4685C121.524 18.4685 119.421 19.4031 117.552 21.0386C117.085 21.5059 116.851 21.2723 116.384 21.0386L116.15 20.805C115.683 20.3377 115.917 19.8704 116.384 19.6367C118.72 17.5339 121.057 16.833 123.627 16.833C128.533 16.833 131.103 19.8704 131.103 25.0106V37.1601C131.103 37.861 130.87 38.0947 130.402 38.0947H129.935C129.468 38.0947 129.234 37.6274 129.234 37.1601V34.8237C127.599 37.1601 125.262 38.3283 122.459 38.3283C118.253 38.562 115.449 35.9919 115.449 31.7863ZM122.692 36.6928C125.963 36.6928 129.234 34.3564 129.234 30.6181V28.9825C127.832 28.2816 125.496 26.8797 123.159 26.8797C119.655 26.8797 117.552 28.9825 117.552 31.7863C117.552 34.59 119.655 36.6928 122.692 36.6928Z" fill="#0C1A3D"/>
<path d="M136.711 36.2148V13.7849C136.711 12.6167 137.412 12.1494 138.346 12.1494H147.225C152.131 12.1494 155.403 15.1868 155.403 19.1588C155.403 21.4952 154.234 23.598 152.365 24.5326C154.702 25.4672 156.804 27.8036 156.804 31.0746C156.804 35.2803 153.3 38.3176 147.926 38.3176H138.346C137.412 38.084 136.711 37.3831 136.711 36.2148ZM146.991 33.4111C149.094 33.4111 150.496 32.0092 150.496 30.1401C150.496 28.5046 149.094 26.869 147.225 26.869H143.487V33.1775H146.991V33.4111ZM146.29 22.8971C148.16 22.8971 149.094 21.4952 149.094 19.8597C149.094 18.2242 147.926 16.8223 146.29 16.8223H143.253V22.8971H146.29Z" fill="#0C1A3D"/>
<path d="M160.082 36.4462V19.1565C160.082 17.9883 160.783 17.521 161.718 17.521H163.587C164.755 17.521 165.222 18.2219 165.222 19.1565V19.8574C166.624 17.9883 168.26 17.0537 170.362 17.0537C171.297 17.0537 172.232 17.2874 172.932 17.521C173.633 17.7546 174.101 17.9883 173.867 19.1565L173.4 21.493C173.166 22.4275 172.465 22.6612 171.764 22.4275C171.063 22.1939 170.362 21.9603 169.895 21.9603C167.792 21.9603 166.624 23.3621 166.624 25.6986V36.2126C166.624 37.3808 165.923 37.8481 164.989 37.8481H161.951C160.549 38.0817 160.082 37.3808 160.082 36.4462Z" fill="#0C1A3D"/>
<path d="M174.32 32.0099C174.32 27.8043 177.591 25.0006 182.264 25.0006C183.666 25.0006 185.068 25.4679 186.47 25.9351V25.2342C186.47 23.3651 185.302 21.7295 183.199 21.7295C181.33 21.7295 179.928 22.4305 178.993 22.8978C178.059 23.3651 177.358 23.365 176.89 22.1968L176.423 21.2622C175.722 20.094 176.189 19.3931 176.89 18.9258C178.76 17.7576 181.33 17.0566 183.666 17.0566C188.105 17.0566 192.545 19.1594 192.545 25.9351V36.4492C192.545 37.6174 191.844 38.3183 190.909 38.3183H189.274C188.105 38.3183 187.638 37.6174 187.638 36.4492V36.2155C186.003 37.851 183.9 38.7856 181.797 38.7856C177.358 38.552 174.32 35.9819 174.32 32.0099ZM183.432 34.3464C185.302 34.3464 186.937 32.9445 186.937 31.5426V29.4398C186.236 28.9725 184.834 28.5052 183.666 28.5052C181.797 28.5052 180.629 29.4398 180.629 31.309C180.395 33.4118 181.563 34.3464 183.432 34.3464Z" fill="#0C1A3D"/>
<path d="M196.288 35.5095C195.353 34.8085 195.353 34.1076 196.054 32.9394L196.989 31.7711C197.923 30.8366 198.624 31.0702 199.559 31.5375C200.727 32.4721 202.363 33.4067 204.232 33.4067C205.4 33.4067 205.867 32.4721 205.867 31.7711C205.867 30.8366 204.699 29.902 203.531 29.4347C200.26 28.2665 196.522 27.3319 196.522 22.8926C196.522 18.9207 199.559 16.3506 204.232 16.3506C206.802 16.3506 209.839 17.2852 211.008 18.687C211.942 19.388 211.942 20.0889 211.008 21.2571L210.307 22.1917C209.606 23.1263 208.671 23.1263 207.97 22.4254C207.036 21.4908 205.867 21.0235 204.466 21.0235C203.297 21.0235 202.596 21.9581 202.596 22.659C202.596 23.8272 204.232 24.2945 206.568 25.2291C209.606 26.631 211.942 28.0328 211.942 31.5375C211.942 35.7431 208.671 38.0796 203.998 38.0796C200.727 38.5469 197.69 37.145 196.288 35.5095Z" fill="#0C1A3D"/>
<path d="M218.484 7.71094C220.587 7.71094 222.223 9.34645 222.223 11.4493C222.223 13.5521 220.587 15.1876 218.484 15.1876C216.382 15.1876 214.746 13.5521 214.746 11.4493C214.746 9.34645 216.382 7.71094 218.484 7.71094ZM215.213 36.4493V19.1595C215.213 17.9913 215.914 17.524 216.849 17.524H219.886C221.054 17.524 221.522 18.225 221.522 19.1595V36.4493C221.522 37.6175 220.821 38.0848 219.886 38.0848H216.849C215.914 38.0848 215.213 37.3838 215.213 36.4493Z" fill="#0C1A3D"/>
<path d="M225.953 32.6999V13.0737C225.953 11.9055 226.654 11.6718 227.589 11.4382L230.626 10.9709C231.794 10.7372 232.262 11.6718 232.262 12.6064V32.2326C232.262 32.6999 232.262 32.9335 232.729 32.9335C232.962 32.9335 233.43 32.9335 233.663 32.6999C234.364 32.6999 234.832 32.6999 235.065 33.6344L235.533 35.9709C235.766 36.9055 235.533 37.3727 234.832 37.6064C233.663 38.3073 232.495 38.3073 231.561 38.3073C228.056 38.541 225.953 36.6718 225.953 32.6999Z" fill="#0C1A3D"/>
<path d="M239.512 25C239.512 11.215 250.727 0 264.512 0C278.297 0 289.512 11.215 289.512 25C289.512 38.785 278.297 50 264.512 50C250.727 50 239.512 38.785 239.512 25ZM249.091 25.9346C255.633 28.972 261.007 33.8785 264.512 40.1869C265.446 42.0561 267.783 42.5234 269.418 41.1215C275.493 36.2149 279.932 29.2056 281.334 21.2617C281.568 19.3925 281.101 17.757 279.699 16.3551C274.792 11.9159 268.717 8.8785 261.708 7.94392C260.306 7.71028 258.671 8.17757 257.502 9.11215C253.063 12.3832 249.558 16.3551 247.222 21.2617C246.521 23.1308 247.222 25.2336 249.091 25.9346Z" fill="#0C1A3D"/>
</svg>
