<svg width="504" height="50" viewBox="0 0 504 50" fill="none" xmlns="http://www.w3.org/2000/svg">
<g clip-path="url(#clip0_1731_479)">
<path d="M34.9965 16.6411V3.17267C32.2874 1.00646 27.0239 0 22.5357 0C14.4087 0 9.06727 2.39992 5.58424 6.7336C2.02457 11.301 0.476562 18.0346 0.476562 25.3876C0.476562 33.3589 2.41158 39.9392 5.8946 43.8859C9.53218 47.9883 14.4087 50 21.9163 50C26.4057 50 31.4368 49.3026 35.3835 46.5182L36.0029 32.0433H33.4484C30.6615 40.0925 28.4174 45.9754 23.2318 45.9754C15.4139 45.9754 13.9438 33.5134 13.9438 24.6915C13.9438 18.4995 14.7178 3.94793 23.0773 4.02583C28.5732 4.02583 30.5082 10.6049 32.4432 16.6424L34.9965 16.6411Z" fill="#223A68"/>
<path d="M48.325 30.9602C48.325 24.3811 49.0211 15.3255 53.3561 15.3255C57.691 15.3255 58.3871 24.3811 58.3871 30.9602C58.3871 38.0029 57.691 46.6727 53.3561 46.6727C49.0211 46.6727 48.325 38.0029 48.325 30.9602ZM53.3548 12.2295C42.9058 12.2295 38.2617 19.3501 38.2617 30.9602C38.2617 42.569 42.9824 49.7688 53.3548 49.7688C63.8805 49.7688 68.4479 42.6482 68.4479 30.9602C68.4479 19.2722 63.8818 12.2295 53.3548 12.2295Z" fill="#223A68"/>
<path d="M80.6321 32.817H82.0256C83.3411 32.817 84.0385 33.978 84.4255 35.8351C84.6579 36.9961 85.0449 41.1752 85.5865 43.4985C86.6696 47.6777 88.3734 48.9932 92.785 48.9932H98.203V46.6712C95.7265 46.1284 95.494 43.6531 94.8758 39.9376C94.2564 35.7585 93.4824 32.5066 88.8383 30.9586V30.8807C93.0174 30.1834 95.9589 27.0107 95.9589 22.4446C95.9589 14.4721 90.6188 13.002 85.1995 13.002H68.4805V15.324C70.957 15.4019 71.1895 15.7889 71.1895 18.4966V43.4973C71.1895 46.2063 70.957 46.592 68.4805 46.6699V48.992H83.3411V46.6699C80.7867 46.5908 80.6321 46.2063 80.6321 43.4973V32.817ZM80.6321 18.1109C80.6321 16.4862 80.9425 16.098 82.4126 16.098C84.5021 16.098 86.515 17.9563 86.515 22.7549C86.515 26.4691 85.4319 29.721 82.1035 29.721H80.6334L80.6321 18.1109Z" fill="#223A68"/>
<path d="M111.376 32.817H112.769C114.085 32.817 114.782 33.978 115.168 35.8351C115.4 36.9961 115.787 41.1752 116.329 43.4985C117.412 47.6777 119.115 48.9932 123.527 48.9932H128.945V46.6712C126.469 46.1284 126.236 43.6531 125.617 39.9376C124.998 35.7585 124.225 32.5066 119.58 30.9586V30.8807C123.76 30.1834 126.7 27.0107 126.7 22.4446C126.7 14.4721 121.36 13.002 115.941 13.002H99.2305V15.324C101.707 15.4019 101.939 15.7889 101.939 18.4966V43.4973C101.939 46.2063 101.707 46.592 99.2305 46.6699V48.992H114.091V46.6699C111.537 46.5908 111.382 46.2063 111.382 43.4973V32.817H111.376ZM111.376 18.1109C111.376 16.4862 111.685 16.098 113.156 16.098C115.247 16.098 117.259 17.9563 117.259 22.7549C117.259 26.4691 116.174 29.721 112.847 29.721H111.377L111.376 18.1109Z" fill="#223A68"/>
<path d="M132.335 43.4989C132.335 46.208 132.103 46.5937 129.626 46.6716V48.9936H154.162L154.627 37.1511H152.692C150.602 44.3496 148.976 45.8976 145.571 45.8976C143.017 45.8976 141.856 45.5106 141.856 42.8795V31.7343H144.41C146.81 31.7343 147.661 32.7408 148.28 36.5316H150.215V23.6072H148.28C147.661 27.4773 146.81 28.4071 144.41 28.4071H141.856V17.958C141.778 16.2555 142.01 16.0996 143.248 16.0996H145.183C148.822 16.0996 149.982 18.4996 151.375 23.3761H153.31V13.0049H129.625V15.3269C132.102 15.4048 132.334 15.7918 132.334 18.4996L132.335 43.4989Z" fill="#223A68"/>
<path d="M168.608 18.4986C168.608 15.7896 168.841 15.4026 171.317 15.3259V13.0039H156.379V15.3259C158.855 15.4038 159.088 15.7908 159.088 18.4986V43.4992C159.088 46.2082 158.855 46.594 156.379 46.6719V48.9939H171.317V46.6719C168.841 46.5927 168.608 46.2082 168.608 43.4992V18.4986Z" fill="#223A68"/>
<path d="M182.442 30.9602C182.442 24.3811 183.139 15.3255 187.473 15.3255C191.808 15.3255 192.504 24.3811 192.504 30.9602C192.504 38.0029 191.807 46.6727 187.473 46.6727C183.138 46.6727 182.447 38.0029 182.447 30.9602H182.442ZM187.468 12.2295C177.02 12.2295 172.375 19.3501 172.375 30.9602C172.375 42.569 177.097 49.7688 187.468 49.7688C197.995 49.7688 202.561 42.6482 202.561 30.9602C202.574 19.2722 198 12.2295 187.471 12.2295H187.468Z" fill="#223A68"/>
<path d="M229.297 25.8516H231.31C235.876 25.8516 237.657 30.9593 237.657 35.6812C237.657 42.6473 235.335 44.8914 232.626 44.8914C229.917 44.8914 229.299 43.2655 229.299 40.9435L229.297 25.8516ZM229.297 6.96638C229.297 5.65082 229.452 5.10801 231.619 5.10801C233.632 5.10801 236.727 6.42357 236.727 13.313C236.727 17.4155 235.566 21.7491 231.231 21.7491H229.296V6.96638H229.297ZM213.126 1.00679V4.0249C216.455 4.17945 216.764 4.64436 216.764 8.28193V41.7187C216.764 45.3576 216.455 45.8212 213.126 45.9757V48.9939H235.263C242.849 48.9939 250.82 47.2913 250.82 36.1449C250.82 26.7023 244.705 24.1478 240.836 23.2971V23.1413C246.486 21.7491 249.426 18.0336 249.426 12.4611C249.426 1.70289 240.525 0.928882 233.87 1.00553H213.121L213.126 1.00679Z" fill="#223A68"/>
<path d="M263.249 32.817H264.643C265.958 32.817 266.656 33.978 267.041 35.8351C267.274 36.9961 267.661 41.1752 268.202 43.4985C269.286 47.6777 270.989 48.9932 275.401 48.9932H280.819V46.6712C278.342 46.1284 278.111 43.6531 277.492 39.9376C276.874 35.7585 276.1 32.5066 271.454 30.9586V30.8807C275.633 30.1834 278.576 27.0107 278.576 22.4446C278.576 14.4721 273.235 13.002 267.817 13.002H251.098V15.324C253.575 15.4019 253.805 15.7889 253.805 18.4966V43.4973C253.805 46.2063 253.574 46.592 251.098 46.6699V48.992H265.958V46.6699C263.404 46.5908 263.249 46.2063 263.249 43.4973V32.817ZM263.249 18.1109C263.249 16.4862 263.558 16.098 265.03 16.098C267.119 16.098 269.132 17.9563 269.132 22.7549C269.132 26.4691 268.049 29.721 264.719 29.721H263.249V18.1109Z" fill="#223A68"/>
<path d="M289.573 34.2105L292.282 22.6783H292.514L294.914 34.2105H289.58H289.573ZM309.928 48.9932V46.6712C307.606 46.3621 307.375 46.2075 306.756 43.9622C305.983 41.4077 304.822 36.4546 303.428 30.9586L298.94 13.002H291.509L286.866 31.1132C285.395 36.687 284.078 41.6402 283.228 44.2713C282.686 46.2075 282.3 46.5166 280.133 46.6712V48.9932H290.581V46.6712L288.182 46.4375C287.176 46.3608 286.943 45.7414 287.33 44.27L288.8 37.5364H295.534L297.004 43.9609C297.392 45.5856 297.314 46.3608 296.308 46.5154L294.373 46.6699V48.992H309.909L309.928 48.9932Z" fill="#223A68"/>
<path d="M310.696 13.0039V24.3815H312.632C313.87 20.1245 314.411 16.0999 319.907 16.0999H323.701C318.824 26.549 313.793 36.9202 308.375 47.6796L308.994 48.9952H334.226L334.69 36.9981H332.756C330.202 43.655 329.041 45.8991 324.473 45.8991H319.831C324.552 35.4513 329.504 25.001 334.769 14.3207L334.226 13.0052H310.691L310.696 13.0039Z" fill="#223A68"/>
<path d="M348.429 18.4986C348.429 15.7896 348.661 15.4026 351.138 15.3259V13.0039H336.199V15.3259C338.677 15.4038 338.907 15.7908 338.907 18.4986V43.4992C338.907 46.2082 338.676 46.594 336.199 46.6719V48.9939H351.138V46.6719C348.66 46.5927 348.429 46.2082 348.429 43.4992V18.4986Z" fill="#223A68"/>
<path d="M366.032 18.4986C366.032 15.7896 366.264 15.4026 369.05 15.3259V13.0039H353.809V15.3259C356.285 15.4038 356.516 15.7908 356.516 18.4986V43.4992C356.516 46.2082 356.284 46.594 353.809 46.6719V48.9939H377.26L377.725 37.3838H375.79C374.319 44.1174 372.307 45.8979 369.597 45.8979C367.12 45.8979 366.037 45.5875 366.037 42.8798V18.4986H366.032Z" fill="#223A68"/>
<path d="M390.835 18.4986C390.835 15.7896 391.067 15.4026 393.543 15.3259V13.0039H378.605V15.3259C381.083 15.4038 381.313 15.7908 381.313 18.4986V43.4992C381.313 46.2082 381.082 46.594 378.605 46.6719V48.9939H393.543V46.6719C391.066 46.5927 390.835 46.2082 390.835 43.4992V18.4986Z" fill="#223A68"/>
<path d="M398.902 43.4989C398.902 46.208 398.668 46.5937 396.193 46.6716V48.9936H420.728L421.192 37.1511H419.257C417.167 44.3496 415.543 45.8976 412.136 45.8976C409.582 45.8976 408.421 45.5106 408.421 42.8795V31.7343H410.975C413.374 31.7343 414.226 32.7408 414.845 36.5316H416.779V23.6072H414.845C414.226 27.4773 413.374 28.4071 410.975 28.4071H408.421V17.958C408.343 16.2555 408.575 16.0996 409.814 16.0996H411.748C415.387 16.0996 416.548 18.4996 417.941 23.3761H419.876V13.0049H396.191V15.3269C398.668 15.4048 398.9 15.7918 398.9 18.4996V43.4989H398.902Z" fill="#223A68"/>
<path d="M422.636 13.0032V15.3252C425.19 15.4031 425.344 15.7901 425.344 18.4979V35.0611C425.344 39.783 425.344 42.1038 425.112 44.0401C424.957 45.9751 424.569 46.5179 423.564 46.5933L422.48 46.6724V48.9945H432.698V46.6724L430.685 46.5179C429.679 46.4387 429.137 45.8984 428.904 43.9634C428.673 42.1051 428.595 39.7843 428.595 35.0624V21.6718H428.904C433.471 30.8053 437.572 39.2402 442.218 48.9932H448.873V26.9353C448.873 22.2146 448.952 19.8926 449.184 17.9563C449.338 16.0213 449.725 15.4798 450.73 15.4019L451.815 15.324V13.002H441.597V15.324L443.611 15.4785C444.618 15.5564 445.158 16.098 445.39 18.033C445.624 19.8914 445.699 22.2134 445.699 26.9341V34.752H445.467C441.519 26.8574 437.958 20.0459 434.865 13.002H422.595L422.636 13.0032Z" fill="#223A68"/>
<path d="M474.129 24.3035V14.5505C471.497 12.6155 467.937 12.2285 465.228 12.2285C458.107 12.2285 453.928 16.7946 453.928 23.684C453.928 29.4124 457.101 32.4306 462.907 35.3708C467.397 37.694 468.325 40.1694 468.325 42.4135C468.325 44.9679 466.933 46.7484 464.61 46.6718C460.896 46.5926 458.341 43.19 455.788 36.0681H453.852L454.472 46.8276C457.026 48.9171 460.74 49.769 464.224 49.769C473.125 49.6911 476.221 44.2731 476.298 37.8499C476.22 30.4202 471.732 27.632 467.475 25.6203C464.379 24.1502 461.825 22.4476 461.825 19.5841C461.825 17.0296 463.218 15.327 465.307 15.327C467.862 15.327 470.184 17.4166 472.273 24.306H474.135L474.129 24.3035Z" fill="#223A68"/>
<path d="M480.787 43.4989C480.787 46.208 480.553 46.5937 478.078 46.6716V48.9936H502.614L503.079 37.1511H501.144C499.054 44.3496 497.43 45.8976 494.023 45.8976C491.469 45.8976 490.308 45.5106 490.308 42.8795V31.7343H492.862C495.261 31.7343 496.113 32.7408 496.732 36.5316H498.666V23.6072H496.732C496.113 27.4773 495.261 28.4071 492.862 28.4071H490.308V17.958C490.23 16.2555 490.462 16.0996 491.701 16.0996H493.635C497.274 16.0996 498.435 18.4996 499.828 23.3761H501.763V13.0049H478.078V15.3269C480.555 15.4048 480.787 15.7918 480.787 18.4996V43.4989Z" fill="#223A68"/>
</g>
<defs>
<clipPath id="clip0_1731_479">
<rect width="502.601" height="50" fill="white" transform="translate(0.476562)"/>
</clipPath>
</defs>
</svg>
