<svg width="100" height="100" viewBox="0 0 100 100" fill="none" xmlns="http://www.w3.org/2000/svg">
<path d="M11.4232 55.6254L55.6232 11.4192C57.9447 9.09768 60.7007 7.25614 63.734 5.99974C66.7672 4.74334 70.0182 4.09668 73.3013 4.09668C76.5844 4.09668 79.8354 4.74334 82.8686 5.99974C85.9018 7.25614 88.6579 9.09767 90.9794 11.4192C93.3009 13.7407 95.1425 16.4968 96.3989 19.53C97.6553 22.5632 98.3019 25.8142 98.3019 29.0973C98.3019 32.3805 97.6553 35.6314 96.3989 38.6647C95.1425 41.6979 93.3009 44.4539 90.9794 46.7755L46.7919 90.9692C44.4712 93.292 41.7157 95.1349 38.6828 96.3927C35.6499 97.6506 32.3989 98.2987 29.1155 98.3002C25.832 98.3016 22.5805 97.6563 19.5464 96.4012C16.5124 95.146 13.7553 93.3055 11.4325 90.9848C9.10979 88.6641 7.26687 85.9086 6.00902 82.8757C4.75117 79.8428 4.10302 76.5918 4.10156 73.3084C4.10011 70.025 4.7454 66.7734 6.00057 63.7394C7.25574 60.7053 9.10247 57.9482 11.4232 55.6254ZM68.4732 60.4442L86.5544 42.3629C88.3186 40.6269 89.7216 38.5587 90.6824 36.2777C91.6433 33.9967 92.1431 31.548 92.1528 29.0729C92.1626 26.5977 91.6823 24.1452 90.7395 21.8566C89.7967 19.5681 88.4101 17.4889 86.6597 15.7389C84.9093 13.9889 82.8297 12.6028 80.541 11.6606C78.2522 10.7183 75.7996 10.2385 73.3244 10.2489C70.8493 10.2593 68.4008 10.7596 66.12 11.721C63.8392 12.6824 61.7713 14.0859 60.0357 15.8504L41.9544 33.9317L68.4732 60.4442Z" fill="#003780"/>
</svg>
