<svg width="100" height="100" viewBox="0 0 100 100" fill="none" xmlns="http://www.w3.org/2000/svg">
<g clip-path="url(#clip0_1900_354)">
<path d="M40.175 7.19375C41.925 3.69375 45.0812 0 50 0C54.9188 0 58.075 3.7 59.825 7.19375C61.6312 10.8125 62.5 15.1937 62.5 18.75V41.8187L94.8125 57.975C96.371 58.7531 97.682 59.95 98.5983 61.4315C99.5145 62.913 99.9999 64.6205 100 66.3625V75C99.9998 75.4536 99.9008 75.9018 99.71 76.3133C99.5191 76.7248 99.241 77.0899 98.8949 77.3831C98.5487 77.6763 98.1429 77.8906 97.7056 78.0112C97.2683 78.1317 96.81 78.1556 96.3625 78.0813L61.9438 72.3437L59.6 86.425L67.8375 94.6625C68.2757 95.0996 68.5742 95.6569 68.6952 96.2638C68.8163 96.8707 68.7544 97.4999 68.5174 98.0716C68.2804 98.6434 67.879 99.1318 67.3641 99.4751C66.8492 99.8184 66.2439 100.001 65.625 100H34.375C33.7561 100.001 33.1509 99.8184 32.6359 99.4751C32.121 99.1318 31.7196 98.6434 31.4826 98.0716C31.2456 97.4999 31.1837 96.8707 31.3048 96.2638C31.4258 95.6569 31.7243 95.0996 32.1625 94.6625L40.4063 86.425L38.0563 72.3437L3.6375 78.0813C3.19002 78.1556 2.73171 78.1317 2.2944 78.0112C1.85709 77.8906 1.45128 77.6763 1.10514 77.3831C0.759013 77.0899 0.480863 76.7248 0.290018 76.3133C0.0991732 75.9018 0.000208812 75.4536 0 75L0 66.3625C5.88439e-05 64.6205 0.485453 62.913 1.40174 61.4315C2.31802 59.95 3.62896 58.7531 5.1875 57.975L37.5 41.8187V18.75C37.5 15.2 38.375 10.8063 40.175 7.19375Z" fill="#003780"/>
</g>
<defs>
<clipPath id="clip0_1900_354">
<rect width="100" height="100" fill="white"/>
</clipPath>
</defs>
</svg>
