<svg width="100" height="100" viewBox="0 0 100 100" fill="none" xmlns="http://www.w3.org/2000/svg">
<path fill-rule="evenodd" clip-rule="evenodd" d="M67.8571 21.875C67.8571 17.731 65.9758 13.7567 62.6269 10.8265C59.278 7.8962 54.736 6.25 50 6.25C45.264 6.25 40.722 7.8962 37.3731 10.8265C34.0242 13.7567 32.1429 17.731 32.1429 21.875V25H67.8571V21.875ZM75 21.875V25H100V87.5C100 90.8152 98.4949 93.9946 95.8158 96.3388C93.1367 98.683 89.5031 100 85.7143 100H14.2857C10.4969 100 6.86328 98.683 4.18419 96.3388C1.5051 93.9946 0 90.8152 0 87.5V25H25V21.875C25 16.0734 27.6339 10.5094 32.3223 6.40704C37.0107 2.30468 43.3696 0 50 0C56.6304 0 62.9893 2.30468 67.6777 6.40704C72.3661 10.5094 75 16.0734 75 21.875ZM70.3857 55.3375C71.0563 54.7507 71.4331 53.9548 71.4331 53.125C71.4331 52.2952 71.0563 51.4993 70.3857 50.9125C69.7151 50.3257 68.8055 49.9961 67.8571 49.9961C66.9087 49.9961 65.9992 50.3257 65.3286 50.9125L46.4286 67.4563L38.2429 60.2875C37.9108 59.9969 37.5166 59.7665 37.0827 59.6092C36.6489 59.452 36.1839 59.3711 35.7143 59.3711C35.2447 59.3711 34.7797 59.452 34.3458 59.6092C33.912 59.7665 33.5178 59.9969 33.1857 60.2875C32.8537 60.578 32.5903 60.923 32.4105 61.3026C32.2308 61.6822 32.1383 62.0891 32.1383 62.5C32.1383 62.9109 32.2308 63.3178 32.4105 63.6974C32.5903 64.077 32.8537 64.422 33.1857 64.7125L43.9 74.0875C44.2318 74.3785 44.6259 74.6094 45.0598 74.767C45.4937 74.9245 45.9588 75.0056 46.4286 75.0056C46.8983 75.0056 47.3635 74.9245 47.7974 74.767C48.2313 74.6094 48.6254 74.3785 48.9571 74.0875L70.3857 55.3375Z" fill="#003780"/>
</svg>
