<svg width="100" height="100" viewBox="0 0 100 100" fill="none" xmlns="http://www.w3.org/2000/svg">
<g clip-path="url(#clip0_1900_352)">
<path d="M50 100C63.2608 100 75.9785 94.7322 85.3553 85.3553C94.7322 75.9785 100 63.2608 100 50C100 36.7392 94.7322 24.0215 85.3553 14.6447C75.9785 5.26784 63.2608 0 50 0C36.7392 0 24.0215 5.26784 14.6447 14.6447C5.26784 24.0215 0 36.7392 0 50C0 63.2608 5.26784 75.9785 14.6447 85.3553C24.0215 94.7322 36.7392 100 50 100ZM43.75 40.625C43.75 43.7562 42.725 43.1 41.1563 42.0938C40.125 41.4313 38.8625 40.625 37.5 40.625C36.1375 40.625 34.875 41.4375 33.8437 42.0938C32.275 43.1 31.25 43.75 31.25 40.625C31.25 35.45 34.05 31.25 37.5 31.25C40.95 31.25 43.75 35.45 43.75 40.625ZM77.0688 59.375C77.6173 60.3251 77.9061 61.4029 77.9061 62.5C77.9061 63.5971 77.6173 64.6749 77.0688 65.625C74.3255 70.3764 70.3797 74.3218 65.6281 77.0647C60.8765 79.8075 55.4864 81.251 50 81.25C44.5146 81.2499 39.1259 79.8058 34.3755 77.0631C29.625 74.3203 25.6802 70.3755 22.9375 65.625C22.3892 64.6754 22.1004 63.5982 22.1002 62.5016C22.0999 61.405 22.3881 60.3277 22.9359 59.3778C23.4837 58.4278 24.2718 57.6388 25.221 57.0897C26.1702 56.5407 27.2472 56.2511 28.3437 56.25H71.6563C72.7533 56.25 73.8311 56.5388 74.7812 57.0874C75.7313 57.6359 76.5202 58.4249 77.0688 59.375ZM66.1563 42.0938C65.125 41.4313 63.8625 40.625 62.5 40.625C61.1375 40.625 59.875 41.4375 58.8437 42.0938C57.275 43.1 56.25 43.75 56.25 40.625C56.25 35.45 59.05 31.25 62.5 31.25C65.95 31.25 68.75 35.45 68.75 40.625C68.75 43.7562 67.725 43.1 66.1563 42.0938Z" fill="#003780"/>
</g>
<defs>
<clipPath id="clip0_1900_352">
<rect width="100" height="100" fill="white"/>
</clipPath>
</defs>
</svg>
