<svg width="100" height="75" viewBox="0 0 100 75" fill="none" xmlns="http://www.w3.org/2000/svg">
<path fill-rule="evenodd" clip-rule="evenodd" d="M37.5 0C38.1422 0.000273249 38.7688 0.198413 39.2944 0.567459C39.82 0.936504 40.2191 1.45853 40.4375 2.0625L62.5 62.725L72.0625 36.425C72.2829 35.8234 72.6829 35.304 73.2084 34.9373C73.7338 34.5707 74.3593 34.3743 75 34.375H96.875C97.7038 34.375 98.4987 34.7042 99.0847 35.2903C99.6708 35.8763 100 36.6712 100 37.5C100 38.3288 99.6708 39.1237 99.0847 39.7097C98.4987 40.2958 97.7038 40.625 96.875 40.625H77.1875L65.4375 72.9375C65.2185 73.5408 64.8191 74.062 64.2936 74.4304C63.768 74.7987 63.1418 74.9963 62.5 74.9963C61.8582 74.9963 61.232 74.7987 60.7064 74.4304C60.1809 74.062 59.7815 73.5408 59.5625 72.9375L37.5 12.275L27.9375 38.5687C27.7181 39.1715 27.3185 39.6922 26.793 40.0601C26.2675 40.428 25.6415 40.6252 25 40.625H3.125C2.2962 40.625 1.50134 40.2958 0.915291 39.7097C0.32924 39.1237 0 38.3288 0 37.5C0 36.6712 0.32924 35.8763 0.915291 35.2903C1.50134 34.7042 2.2962 34.375 3.125 34.375H22.8125L34.5625 2.0625C34.7809 1.45853 35.18 0.936504 35.7056 0.567459C36.2312 0.198413 36.8578 0.000273249 37.5 0Z" fill="#003780"/>
</svg>
